<svg version="1.1" id="Layer_2" xmlns="http://www.w3.org/2000/svg" xmlns:xlink="http://www.w3.org/1999/xlink" x="0px" y="0px"
	 width="58px" height="45px" viewBox="0 7 58 45" enable-background="new 0 0 58 54" xml:space="preserve">
<g>
	<g>
		<path d="M53.379,32.572v-2.104c0-0.545-0.441-0.985-0.986-0.985h-0.972c-0.048-12.34-8.126-22.316-21.636-22.316
			c-13.518,0-22.028,9.403-22.223,22.393H6.577c-0.545,0-0.987,0.44-0.987,0.985v2.095H5.365c-0.996,0-1.804,0.807-1.804,1.803
			v8.266c0,0.996,0.808,1.803,1.804,1.803H5.59v2.17c0,0.545,0.442,0.986,0.987,0.986h2.009c0.545,0,0.987-0.441,0.987-0.986v-2.178
			c0.96-0.04,1.729-0.824,1.729-1.795v-8.266c0-0.947-0.733-1.715-1.662-1.789c-0.032-0.426-0.053-0.848-0.067-1.271v-0.838
			c0-0.033-0.016-0.062-0.019-0.095C9.537,19.085,16.132,9.271,29.71,9.271c13.595,0,19.661,9.838,19.687,21.345v0.007
			c0.002,0.643-0.021,1.291-0.057,1.941h-0.169c-0.996,0-1.804,0.808-1.804,1.804v8.266c0,0.996,0.808,1.804,1.804,1.804h0.226v2.17
			c0,0.545,0.441,0.985,0.986,0.985h2.01c0.545,0,0.986-0.44,0.986-0.985V44.43c0.96-0.041,1.729-0.824,1.729-1.796v-8.266
			C55.105,33.396,54.339,32.611,53.379,32.572z"/>
	</g>
</g>
</svg>
