<svg version="1.1" id="Layer_1" xmlns="http://www.w3.org/2000/svg" xmlns:xlink="http://www.w3.org/1999/xlink" x="0px" y="0px"
	 width="48px" height="54px" viewBox="0 0 48 54" enable-background="new 0 0 48 54" xml:space="preserve">
<path d="M42.119,1.306h-0.015H4.414H4.401c-0.934,0-1.446,0.607-1.446,1.564v9.114v38.608
	c0,0.957,0.512,2.242,1.446,2.242h37.718c0.933,0,1.445-1.285,1.445-2.244V11.983V2.87C43.564,1.913,43.054,1.306,42.119,1.306z
	 M40.855,50.103H5.666V3.975h35.186v46.128H40.855z"/>
<rect x="5.215" y="11.03" width="36.451" height="1.626"/>
<rect x="15.436" y="3.25" width="1.447" height="8.141"/>
<path d="M36.154,26.94h-0.008h-9.124h-0.009c-0.465,0-0.719,0.302-0.719,0.776v4.527v2.665
	c0,0.474,0.255,1.111,0.719,1.111h9.141c0.464,0,0.718-0.638,0.718-1.114v-2.663v-4.526C36.872,27.242,36.618,26.94,36.154,26.94z
	 M35.525,34.665h-7.879v-6.398h7.879V34.665z"/>
<g>
	<g>
		<path d="M23.531,20.448c4.835,0,8.931,3.168,10.329,7.542h1.71c-1.496-5.246-6.313-9.091-12.039-9.091
			c-6.919,0-12.529,5.609-12.529,12.528c0,6.918,5.61,12.525,12.529,12.525c5.685,0,10.476-3.789,12.01-8.977h-1.818
			c-1.509,4.177-5.497,7.166-10.191,7.166c-5.992,0-10.847-4.856-10.847-10.848C12.685,25.307,17.539,20.448,23.531,20.448z
			 M35.99,30.125v2.599c0.044-0.427,0.069-0.86,0.069-1.3C36.06,30.985,36.034,30.553,35.99,30.125z"/>
	</g>
</g>
<g>
	<g>
		<path d="M29.34,34.906c-1.214,1.998-3.39,3.348-5.898,3.348c-3.821,0-6.921-3.096-6.921-6.919
			c0-3.819,3.1-6.916,6.921-6.916c2.628,0,4.885,1.482,6.057,3.64h1.996c-1.317-3.147-4.428-5.359-8.052-5.359
			c-4.821,0-8.729,3.906-8.729,8.727c0,4.821,3.909,8.728,8.729,8.728c3.582,0,6.656-2.159,7.999-5.246H29.34V34.906z"/>
	</g>
</g>
</svg>
